<?xml version="1.0" encoding="utf-8"?>
<!-- Generator: Adobe Illustrator 19.1.0, SVG Export Plug-In . SVG Version: 6.00 Build 0)  -->
<svg version="1.1" id="Layer_1" xmlns="http://www.w3.org/2000/svg" xmlns:xlink="http://www.w3.org/1999/xlink" x="0px" y="0px"
	 viewBox="0 0 90 90" style="enable-background:new 0 0 90 90;" xml:space="preserve">
<style type="text/css">
	.st0{fill:#FFFFFF;}
</style>
<path class="st0" d="M17,8h-6v11H5v6h6v11h6v-5h5v-6h6v-6H17V8z M34,2v6h12V2H34z M28,19h6V8h-6V19z M64,83H40v-6h17v-6h7V48h5v-5h5
	v-7h-5v-5H57V19h-5V8h-6v23H34v5h-6v7h-6v34h6v6h6v6h35v-6h5v-6H64V83z M74,43v34h7V43H74z"/>
</svg>
