<?xml version="1.0" encoding="utf-8"?>
<!-- Generator: Adobe Illustrator 19.1.0, SVG Export Plug-In . SVG Version: 6.00 Build 0)  -->
<svg version="1.1" id="Layer_1" xmlns="http://www.w3.org/2000/svg" xmlns:xlink="http://www.w3.org/1999/xlink" x="0px" y="0px"
	 viewBox="0 0 90 90" style="enable-background:new 0 0 90 90;" xml:space="preserve">
<style type="text/css">
	.st0{fill:#FFFFFF;}
</style>
<path class="st0" d="M32,63h23v-4h4v-5h-9v5h-9v-8h9V41h-9v-8h5v4h9v-9H37v5h-5 M3,25v41h6V25H3z M24,11h-7v8h7V11z M17,19H9v6h8V19
	z M79,25v-6h-8v6H79z M71,19v-8h-7v8H71z M9,66v7h8v-7H9z M71,73h8v-7h-8V73z M79,25v41h6V25H79z M24,87h40v-7H24V87z M24,11h40V5
	H24V11z M64,80h7v-7h-7V80z M17,73v7h7v-7H17z"/>
</svg>
