<?xml version="1.0" encoding="utf-8"?>
<!-- Generator: Adobe Illustrator 19.1.0, SVG Export Plug-In . SVG Version: 6.00 Build 0)  -->
<svg version="1.1" id="Layer_1" xmlns="http://www.w3.org/2000/svg" xmlns:xlink="http://www.w3.org/1999/xlink" x="0px" y="0px"
	 viewBox="0 0 90 90" style="enable-background:new 0 0 90 90;" xml:space="preserve">
<style type="text/css">
	.st0{fill:#FFFFFF;}
</style>
<path class="st0" d="M30,55h6v-5h-6V55z M13,61H7v17h6v6h17v-6h6V61h-6v-6H13V61z M76,61v-6h-6V44h-5v11h-6v6h-6v17h6v6h17v-6h6V61
	H76z M53,15v11h6V15H53z M36,50h6V38h-6V50z M59,26v18h6V26H59z M42,38h5v-6h-5V38z M47,32h6v-6h-6V32z M65,10h5V4H59v11h6V10z"/>
</svg>
