<?xml version="1.0" encoding="utf-8"?>
<!-- Generator: Adobe Illustrator 19.1.0, SVG Export Plug-In . SVG Version: 6.00 Build 0)  -->
<svg version="1.1" id="Layer_1" xmlns="http://www.w3.org/2000/svg" xmlns:xlink="http://www.w3.org/1999/xlink" x="0px" y="0px"
	 viewBox="-30 32 28 28" style="enable-background:new -30 32 28 28;" xml:space="preserve">
<style type="text/css">
	.st0{fill:#595396;}
</style>
<g>
	<polyline class="st0" points="-23,56 -23,61 -11,61 -11,56 	"/>
	<polyline class="st0" points="-11,52 -11,57 -7,57 -7,52 	"/>
	<polyline class="st0" points="-27,52 -27,57 -23,57 -23,52 	"/>
	<polyline class="st0" points="-3,44 -3,33 -7,33 -7,37 -11,37 -11,41 -15,41 -15,44 	"/>
	<polyline class="st0" points="-11,36 -11,33 -23,33 -23,36 	"/>
	<polyline class="st0" points="-23,40 -23,37 -27,37 -27,40 	"/>
	<polyline class="st0" points="-26,41 -31,41 -31,53 -26,53 	"/>
</g>
</svg>
